<svg width="57" height="13" viewBox="0 0 57 13" fill="none" xmlns="http://www.w3.org/2000/svg">
<path fill-rule="evenodd" clip-rule="evenodd" d="M16.0522 0.821411C17.1236 0.821411 17.9647 1.15891 18.5754 1.83391C19.1968 2.4982 19.5075 3.4357 19.5075 4.64641V9.33927H18.1414L17.7557 8.02141C17.52 8.41784 17.1718 8.76605 16.7111 9.06605C16.2504 9.35534 15.7039 9.49998 15.0718 9.49998C14.5147 9.49998 14.0111 9.38748 13.5611 9.16248C13.1218 8.93748 12.7789 8.62141 12.5325 8.21427C12.2861 7.80713 12.1629 7.34641 12.1629 6.83213C12.1629 6.03927 12.4736 5.40713 13.095 4.9357C13.7272 4.45355 14.6432 4.21248 15.8432 4.21248H17.6432C17.6004 3.65534 17.4289 3.21605 17.1289 2.89463C16.8397 2.56248 16.4486 2.39641 15.9557 2.39641C15.5593 2.39641 15.2164 2.49284 14.9272 2.6857C14.6379 2.87855 14.4236 3.11427 14.2843 3.39284L12.5807 3.10355C12.7843 2.39641 13.2022 1.83927 13.8343 1.43213C14.4772 1.02498 15.2164 0.821411 16.0522 0.821411ZM15.5057 7.94105C16.1486 7.94105 16.6682 7.73213 17.0647 7.31427C17.4611 6.89641 17.6593 6.34463 17.6593 5.65891H15.9075C14.6539 5.65891 14.0272 6.0232 14.0272 6.75177C14.0272 7.11605 14.1611 7.40534 14.4289 7.61962C14.6968 7.83391 15.0557 7.94105 15.5057 7.94105ZM21.5126 0.982125V12.6339H23.3608V8.06962C23.6929 8.47677 24.1215 8.81963 24.6465 9.0982C25.1715 9.36605 25.7715 9.49998 26.4465 9.49998C27.2286 9.49998 27.9304 9.31784 28.5518 8.95355C29.1733 8.57855 29.6554 8.06427 29.9983 7.4107C30.3518 6.74641 30.5286 5.99641 30.5286 5.1607C30.5286 4.32498 30.3518 3.58034 29.9983 2.92677C29.6554 2.26248 29.1733 1.7482 28.5518 1.38391C27.9304 1.00891 27.2286 0.821411 26.4465 0.821411C25.7501 0.821411 25.134 0.971411 24.5983 1.27141C24.0626 1.5607 23.6233 1.91427 23.2804 2.33213L22.8947 0.982125H21.5126ZM27.8768 7.10534C27.3947 7.5982 26.7679 7.84462 25.9965 7.84462C25.2143 7.84462 24.5768 7.5982 24.084 7.10534C23.6018 6.60177 23.3608 5.95355 23.3608 5.1607C23.3608 4.36784 23.6018 3.72498 24.084 3.23213C24.5768 2.72855 25.2143 2.47677 25.9965 2.47677C26.7679 2.47677 27.3947 2.72855 27.8768 3.23213C28.359 3.72498 28.6001 4.36784 28.6001 5.1607C28.6001 5.95355 28.359 6.60177 27.8768 7.10534ZM42.3305 8.95355C42.9947 9.31784 43.7447 9.49998 44.5805 9.49998C45.4912 9.49998 46.3162 9.26962 47.0554 8.80891C47.7947 8.3482 48.3144 7.69463 48.6144 6.8482L46.8787 6.55891C46.6858 6.93391 46.3965 7.23927 46.0108 7.47498C45.6251 7.69998 45.1858 7.81248 44.6929 7.81248C43.9429 7.81248 43.3322 7.56605 42.8608 7.0732C42.3894 6.58034 42.1537 5.94284 42.1537 5.1607C42.1537 4.37855 42.3894 3.74105 42.8608 3.2482C43.3322 2.75534 43.9429 2.50891 44.6929 2.50891C45.1644 2.50891 45.5876 2.62141 45.9626 2.84641C46.3483 3.07141 46.6322 3.36605 46.8144 3.73034L48.5501 3.44105C48.2501 2.60534 47.7412 1.96248 47.0233 1.51248C46.3162 1.05177 45.5019 0.821411 44.5805 0.821411C43.7447 0.821411 42.9947 1.00891 42.3305 1.38391C41.6662 1.7482 41.1465 2.26248 40.7715 2.92677C40.4072 3.58034 40.2251 4.32498 40.2251 5.1607C40.2251 5.99641 40.4072 6.74641 40.7715 7.4107C41.1465 8.06427 41.6662 8.57855 42.3305 8.95355ZM56.6222 9.33927V0.982125H52.9097C52.2883 0.982125 51.7311 1.10534 51.2383 1.35177C50.7454 1.58748 50.3597 1.91963 50.0811 2.3482C49.8026 2.77677 49.6633 3.26427 49.6633 3.8107C49.6633 4.39998 49.8186 4.91962 50.1294 5.36962C50.4401 5.81962 50.8686 6.15177 51.4151 6.36605L49.4222 9.33927H51.5276L53.2954 6.65534H54.774V9.33927H56.6222ZM54.774 2.58927V5.0482H52.9097C52.4919 5.0482 52.1544 4.9357 51.8972 4.7107C51.6401 4.4857 51.5115 4.1857 51.5115 3.8107C51.5115 3.44641 51.6401 3.15177 51.8972 2.92677C52.1544 2.70177 52.4919 2.58927 52.9097 2.58927H54.774ZM37.7704 0.982125H39.6508L36.2276 10.3839C35.9383 11.1768 35.5633 11.75 35.1026 12.1036C34.6526 12.4571 34.0472 12.6339 33.2865 12.6339H32.0169L31.8562 10.9464H33.4151C33.7258 10.9464 33.9615 10.8768 34.1222 10.7375C34.2937 10.6089 34.4383 10.3786 34.5562 10.0464L34.6526 9.78927L30.9401 0.982125H32.9169L35.3758 7.00891H35.6329L37.7704 0.982125ZM0.669922 9.33927H2.43778V3.1357H2.69492L4.78421 9.33927H6.34314L8.52885 3.1357H8.78599V9.33927H10.5538V0.982125H7.74135L5.73242 6.71962H5.47528L3.54671 0.982125H0.669922V9.33927Z" fill="white"/>
</svg>
